<svg width="73" height="53" viewBox="0 0 73 53" fill="none" xmlns="http://www.w3.org/2000/svg">
<g clip-path="url(#clip0_2141_1588)">
<path d="M57.5879 38.3164C56.5066 38.3164 55.6299 39.2024 55.6299 40.295C55.6299 41.3877 56.5066 42.2737 57.5879 42.2737C58.6691 42.2737 59.5458 41.3877 59.5458 40.295C59.5458 39.2024 58.6691 38.3164 57.5879 38.3164Z" fill="#75091E"/>
<path d="M63.4179 38.3164C62.3367 38.3164 61.46 39.2024 61.46 40.295C61.46 41.3877 62.3367 42.2737 63.4179 42.2737C64.4992 42.2737 65.3759 41.3877 65.3759 40.295C65.3759 39.2024 64.4992 38.3164 63.4179 38.3164Z" fill="#75091E"/>
<path d="M72.0102 39.9176L69.1122 21.0664C67.9384 13.4373 63.248 6.90582 56.2393 3.14542C48.8214 -0.836471 39.8498 -1.04812 32.2614 2.56955L17.7179 9.0518C17.7179 9.0518 17.7082 9.0518 17.7033 9.05673L7.60664 13.8064C1.83988 16.5234 -1.12629 23.2124 0.709912 29.3747L6.74455 48.9642C7.6456 51.4547 9.73994 53.0002 12.2142 53.0002C14.8638 53.0002 16.9727 51.5138 17.8494 49.0528H63.8227C66.3213 49.0528 68.6592 47.9847 70.2373 46.1193C71.7033 44.3868 72.3511 42.1276 72.0102 39.9127V39.9176ZM68.9368 44.9971C67.6851 46.4786 65.8197 47.3252 63.8227 47.3252H18.2927L25.2722 16.8236C25.3793 16.361 25.092 15.8934 24.6293 15.7851C24.1714 15.6768 23.7087 15.9672 23.6016 16.4348L16.3688 48.0586C15.8379 50.0717 14.2842 51.2726 12.2093 51.2726C10.4754 51.2726 8.99475 50.1603 8.36157 48.408L2.34642 28.8677C0.753747 23.5323 3.32541 17.7293 8.32748 15.3766L18.4242 10.6268L32.9725 4.13966C40.0933 0.748409 48.4902 0.945288 55.4356 4.67123C61.967 8.17569 66.3359 14.2445 67.4221 21.3322L70.3201 40.1834C70.588 41.9208 70.096 43.6337 68.9368 45.002V44.9971Z" fill="#75091E"/>
<path d="M39.1723 17.8906L39.1869 17.9153C39.4596 17.8267 39.7519 17.7676 40.0538 17.7676C40.4045 17.7676 40.7406 17.8365 41.0474 17.9546C41.3494 16.8373 41.7634 14.6175 41.2715 12.1467C41.2374 11.9843 41.1059 11.8612 40.9452 11.8415C39.0992 11.6348 37.1948 12.0433 35.5924 12.9933C35.4804 13.0572 35.4171 13.1705 35.4122 13.2984C35.4024 13.4362 35.4609 13.5691 35.5729 13.6479C37.0487 14.7652 38.2615 16.1876 39.1723 17.8808V17.8906Z" fill="#75091E"/>
<path d="M37.341 20.0015C37.4725 19.3567 37.8232 18.7907 38.3151 18.392C37.5115 17.5749 35.8263 16.0934 33.4738 15.296C33.3179 15.2468 33.1426 15.296 33.0452 15.4289C31.9444 16.9449 31.3454 18.8251 31.3551 20.7053C31.3551 20.8333 31.4184 20.9465 31.5256 21.0203C31.6376 21.0991 31.7788 21.104 31.9055 21.0548C33.6053 20.3115 35.4318 19.9621 37.3313 20.0113H37.3459L37.341 20.0015Z" fill="#75091E"/>
<path d="M32.2563 23.7158C32.1346 23.829 32.0956 24.0062 32.1589 24.1587C32.909 25.8814 34.2045 27.3482 35.8167 28.2834C35.9287 28.3474 36.0554 28.3523 36.1674 28.2932C36.2892 28.2342 36.372 28.1111 36.3866 27.9782C36.6057 26.1177 37.2146 24.3409 38.2082 22.692L38.2228 22.6772C37.7601 22.2539 37.4337 21.6731 37.3315 21.0234C36.2307 21.3188 34.1217 22.062 32.2612 23.7256L32.2563 23.7158Z" fill="#75091E"/>
<path d="M44.5348 27.4932C43.059 26.3759 41.8463 24.9535 40.9355 23.2603L40.9209 23.2357C40.6481 23.3243 40.3559 23.3784 40.0539 23.3784C39.7032 23.3784 39.3672 23.3095 39.0603 23.1914C38.7583 24.3087 38.3395 26.5285 38.8363 28.9994C38.8704 29.1618 39.0019 29.2848 39.1626 29.3045C41.0085 29.5112 42.9129 29.1027 44.5154 28.1528C44.6274 28.0888 44.6907 27.9756 44.6956 27.8476C44.7053 27.7098 44.6469 27.5769 44.5348 27.4982V27.4932Z" fill="#75091E"/>
<path d="M48.2026 20.101C46.5028 20.8442 44.6763 21.1887 42.7768 21.1444H42.7622C42.6307 21.7892 42.28 22.3552 41.7881 22.7539C42.5917 23.571 44.2769 25.0525 46.6294 25.8498C46.7853 25.8991 46.9606 25.8498 47.058 25.717C48.1588 24.201 48.7579 22.3208 48.7481 20.4406C48.7481 20.3126 48.6848 20.1994 48.5777 20.1256C48.4656 20.0517 48.3244 20.037 48.1978 20.0911L48.2026 20.101Z" fill="#75091E"/>
<path d="M47.8468 17.4333C47.9686 17.3201 48.0075 17.1429 47.9442 16.9903C47.1942 15.2676 45.8986 13.8009 44.2864 12.8657C44.1744 12.8017 44.0478 12.8017 43.9358 12.8559C43.814 12.9149 43.7312 13.038 43.7166 13.1709C43.4974 15.0314 42.8886 16.8082 41.895 18.4571L41.8804 18.4718C42.3431 18.8951 42.6694 19.4759 42.7717 20.1256C43.8724 19.8303 45.9814 19.0871 47.8419 17.4235L47.8468 17.4333Z" fill="#75091E"/>
<path d="M40.0494 18.625C38.9876 18.625 38.1255 19.5011 38.1255 20.5741C38.1255 21.6471 38.9876 22.5232 40.0494 22.5232C41.1111 22.5232 41.9732 21.6471 41.9732 20.5741C41.9732 19.5011 41.1111 18.625 40.0494 18.625Z" fill="#75091E"/>
</g>
<defs>
<clipPath id="clip0_2141_1588">
<rect width="71.9286" height="53" fill="white" transform="translate(0.168945)"/>
</clipPath>
</defs>
</svg>
