<svg width="185" height="42" viewBox="0 0 185 42" fill="none" xmlns="http://www.w3.org/2000/svg">
<path d="M100.728 11.7343H97.449C97.7488 13.2507 97.3959 14.6599 96.7166 16.9498L93.7906 26.3391L89.1796 11.7305H86.2271L81.6731 26.3391L77.1456 11.7305H73.5669L79.9843 30.7849H83.2366L87.6578 16.7009L92.1056 30.7849H95.3845L99.6957 17.865C100.648 15.0772 101.054 13.3924 100.728 11.7381V11.7343Z" fill="#75091E"/>
<path d="M108.052 16.375C103.824 16.375 100.652 19.5495 100.652 23.7463C100.652 27.9432 103.851 31.1177 108.052 31.1177C112.253 31.1177 115.452 27.9432 115.452 23.7463C115.452 19.5495 112.28 16.375 108.052 16.375ZM108.052 28.1347C105.612 28.1347 103.768 26.2315 103.768 23.7425C103.768 21.2535 105.608 19.3503 108.052 19.3503C110.496 19.3503 112.31 21.2573 112.31 23.7425C112.31 26.2277 110.492 28.1347 108.052 28.1347Z" fill="#75091E"/>
<path d="M124.374 16.375C120.147 16.375 116.974 19.5495 116.974 23.7463C116.974 27.9432 120.173 31.1177 124.374 31.1177C128.576 31.1177 131.775 27.9432 131.775 23.7463C131.775 19.5495 128.602 16.375 124.374 16.375ZM124.374 28.1347C121.934 28.1347 120.09 26.2315 120.09 23.7425C120.09 21.2535 121.934 19.3503 124.374 19.3503C126.815 19.3503 128.632 21.2573 128.632 23.7425C128.632 26.2277 126.815 28.1347 124.374 28.1347Z" fill="#75091E"/>
<path d="M140.481 26.6686C142.674 24.0455 143.949 20.6796 143.949 17.2256C143.949 13.0287 142.022 10.5703 139.069 10.5703C135.95 10.5703 133.915 13.247 133.915 18.1638C133.915 21.5297 134.758 24.4859 136.246 26.6954C135.46 27.331 134.568 27.8824 133.646 28.296L134.807 30.7812C136.029 30.314 137.164 29.6516 138.196 28.8781C139.688 30.0919 141.532 30.7812 143.593 30.7812H144.542V27.7982H143.783C142.534 27.7982 141.426 27.3846 140.477 26.6686H140.481ZM137.039 17.9455C137.039 14.9625 137.855 13.5533 138.993 13.5533C140.132 13.5533 140.834 14.8782 140.834 17.2256C140.834 19.795 139.965 22.2802 138.504 24.3251C137.555 22.6095 137.043 20.3732 137.043 17.9455H137.039Z" fill="#75091E"/>
<path d="M156.397 24.017C156.397 26.0925 155.015 27.4442 152.955 27.4442C151 27.4442 149.729 26.1193 149.729 24.0783V16.707H146.693V24.9858C146.693 28.2714 148.807 30.4272 151.979 30.4272C153.82 30.4272 155.338 29.7073 156.397 28.3556V30.1783C156.397 32.2193 154.962 33.5711 153.065 33.5711C151.657 33.5711 150.385 32.8244 149.922 31.6679H146.807C147.513 34.5667 149.896 36.3626 153.012 36.3626C156.753 36.3626 159.437 33.8506 159.437 30.0405V16.7031H156.401V24.017H156.397Z" fill="#75091E"/>
<path d="M168.678 11.7305L161.308 30.7849H164.776L166.294 26.7259H174.807L176.325 30.7849H179.877L172.503 11.7305H168.681H168.678ZM167.433 23.6893L170.549 15.3223L173.664 23.6893H167.433Z" fill="#75091E"/>
<path d="M185 11.7109H181.767V30.8037H185V11.7109Z" fill="#75091E"/>
<g clip-path="url(#clip0_2149_420)">
<path d="M45.5057 30.3633C44.6488 30.3633 43.9541 31.0654 43.9541 31.9313C43.9541 32.7972 44.6488 33.4992 45.5057 33.4992C46.3626 33.4992 47.0573 32.7972 47.0573 31.9313C47.0573 31.0654 46.3626 30.3633 45.5057 30.3633Z" fill="#75091E"/>
<path d="M50.1258 30.3633C49.269 30.3633 48.5742 31.0654 48.5742 31.9313C48.5742 32.7972 49.269 33.4992 50.1258 33.4992C50.9827 33.4992 51.6774 32.7972 51.6774 31.9313C51.6774 31.0654 50.9827 30.3633 50.1258 30.3633Z" fill="#75091E"/>
<path d="M56.9346 31.6328L54.6381 16.6941C53.7079 10.6484 49.991 5.47254 44.4369 2.4926C38.5586 -0.662864 31.449 -0.830584 25.4356 2.03624L13.9106 7.17313C13.9106 7.17313 13.9028 7.17313 13.899 7.17703L5.89783 10.941C1.32795 13.094 -1.02261 18.3947 0.432496 23.2781L5.21466 38.8018C5.9287 40.7755 7.58837 42.0002 9.5491 42.0002C11.6488 42.0002 13.32 40.8223 14.0148 38.8721H50.4464C52.4265 38.8721 54.2791 38.0257 55.5297 36.5474C56.6914 35.1744 57.2048 33.3841 56.9346 31.6289V31.6328ZM54.4991 35.6581C53.5072 36.8321 52.0289 37.503 50.4464 37.503H14.366L19.8969 13.3319C19.9819 12.9653 19.7541 12.5948 19.3875 12.5089C19.0247 12.4231 18.658 12.6533 18.5731 13.0238L12.8414 38.0842C12.4207 39.6794 11.1895 40.6312 9.54524 40.6312C8.17119 40.6312 6.99784 39.7497 6.49608 38.3611L1.72935 22.8763C0.467233 18.6482 2.50515 14.0496 6.46906 12.1852L14.4702 8.42127L25.9991 3.28049C31.642 0.593079 38.2961 0.749097 43.8 3.70173C48.9759 6.47885 52.4381 11.2881 53.2988 16.9047L55.5953 31.8435C55.8076 33.2203 55.4177 34.5777 54.4991 35.662V35.6581Z" fill="#75091E"/>
<path d="M30.9122 14.179L30.9237 14.1985C31.1399 14.1283 31.3715 14.0815 31.6108 14.0815C31.8887 14.0815 32.155 14.1361 32.3981 14.2297C32.6374 13.3443 32.9655 11.5852 32.5757 9.62714C32.5487 9.49843 32.4445 9.40092 32.3171 9.38531C30.8543 9.2215 29.3451 9.54523 28.0753 10.298C27.9865 10.3487 27.9363 10.4384 27.9325 10.5398C27.9248 10.6491 27.9711 10.7544 28.0598 10.8168C29.2293 11.7022 30.1904 12.8294 30.9122 14.1712V14.179Z" fill="#75091E"/>
<path d="M29.4609 15.853C29.5652 15.3421 29.8431 14.8935 30.2329 14.5776C29.596 13.9301 28.2606 12.7561 26.3963 12.1242C26.2728 12.0852 26.1339 12.1242 26.0567 12.2295C25.1844 13.4308 24.7097 14.9208 24.7174 16.4108C24.7174 16.5122 24.7676 16.6019 24.8525 16.6604C24.9412 16.7228 25.0532 16.7267 25.1535 16.6877C26.5006 16.0987 27.9479 15.8218 29.4532 15.8608H29.4648L29.4609 15.853Z" fill="#75091E"/>
<path d="M25.4315 18.7937C25.335 18.8834 25.3042 19.0238 25.3543 19.1447C25.9487 20.5099 26.9754 21.6722 28.253 22.4133C28.3417 22.464 28.4421 22.4679 28.5309 22.4211C28.6274 22.3743 28.693 22.2768 28.7046 22.1715C28.8782 20.6971 29.3607 19.2891 30.1481 17.9824L30.1597 17.9707C29.793 17.6353 29.5344 17.175 29.4533 16.6602C28.581 16.8942 26.9098 17.4832 25.4354 18.8015L25.4315 18.7937Z" fill="#75091E"/>
<path d="M35.1618 21.7879C33.9923 20.9025 33.0313 19.7753 32.3095 18.4335L32.2979 18.414C32.0818 18.4842 31.8502 18.5271 31.6109 18.5271C31.333 18.5271 31.0667 18.4725 30.8235 18.3789C30.5842 19.2643 30.2523 21.0234 30.646 22.9814C30.673 23.1101 30.7772 23.2077 30.9046 23.2233C32.3674 23.3871 33.8766 23.0633 35.1464 22.3106C35.2352 22.2599 35.2853 22.1701 35.2892 22.0687C35.2969 21.9595 35.2506 21.8542 35.1618 21.7918V21.7879Z" fill="#75091E"/>
<path d="M38.0681 15.9281C36.7211 16.5171 35.2737 16.7901 33.7684 16.755H33.7568C33.6526 17.266 33.3747 17.7145 32.9849 18.0304C33.6217 18.6779 34.9572 19.852 36.8214 20.4838C36.9449 20.5228 37.0839 20.4838 37.1611 20.3785C38.0333 19.1772 38.5081 17.6872 38.5004 16.1972C38.5004 16.0958 38.4502 16.0061 38.3653 15.9476C38.2765 15.8891 38.1646 15.8774 38.0642 15.9203L38.0681 15.9281Z" fill="#75091E"/>
<path d="M37.7867 13.8149C37.8832 13.7252 37.9141 13.5848 37.8639 13.4639C37.2695 12.0987 36.2428 10.9364 34.9653 10.1953C34.8765 10.1446 34.7762 10.1446 34.6874 10.1875C34.5909 10.2343 34.5253 10.3318 34.5137 10.4371C34.34 11.9115 33.8576 13.3196 33.0702 14.6262L33.0586 14.6379C33.4253 14.9734 33.6839 15.4336 33.7649 15.9485C34.6372 15.7144 36.3085 15.1255 37.7829 13.8071L37.7867 13.8149Z" fill="#75091E"/>
<path d="M31.6071 14.7578C30.7657 14.7578 30.0825 15.4521 30.0825 16.3024C30.0825 17.1527 30.7657 17.847 31.6071 17.847C32.4485 17.847 33.1317 17.1527 33.1317 16.3024C33.1317 15.4521 32.4485 14.7578 31.6071 14.7578Z" fill="#75091E"/>
</g>
<defs>
<clipPath id="clip0_2149_420">
<rect width="57" height="42" fill="white" transform="translate(0.00390625)"/>
</clipPath>
</defs>
</svg>
