<?xml version="1.0" encoding="UTF-8" standalone="no"?><!DOCTYPE svg PUBLIC "-//W3C//DTD SVG 1.1//EN" "http://www.w3.org/Graphics/SVG/1.1/DTD/svg11.dtd"><svg width="100%" height="100%" viewBox="0 0 1280 340" version="1.1" xmlns="http://www.w3.org/2000/svg" xmlns:xlink="http://www.w3.org/1999/xlink" xml:space="preserve" xmlns:serif="http://www.serif.com/" style="fill-rule:evenodd;clip-rule:evenodd;stroke-linejoin:round;stroke-miterlimit:2;"><g id="logo"><clipPath id="_clip1"><rect x="11.795" y="18.547" width="1250.96" height="284.002"/></clipPath><g clip-path="url(#_clip1)"><path d="M692.913,97.894L670.741,97.894C672.768,108.148 670.382,117.677 665.788,133.161L646.003,196.651L614.823,97.868L594.859,97.868L564.065,196.651L533.45,97.868L509.251,97.868L552.645,226.713L574.637,226.713L604.533,131.478L634.609,226.713L656.781,226.713L685.933,139.349C692.372,120.498 695.118,109.106 692.913,97.919L692.913,97.894Z" style="fill:#75091e;fill-rule:nonzero;"/><path d="M742.438,129.274C713.848,129.274 692.399,150.74 692.399,179.118C692.399,207.498 714.031,228.964 742.438,228.964C770.845,228.964 792.476,207.498 792.476,179.118C792.476,150.74 771.027,129.274 742.438,129.274ZM742.438,208.793C725.939,208.793 713.47,195.923 713.47,179.093C713.47,162.262 725.912,149.393 742.438,149.393C758.964,149.393 771.23,162.288 771.23,179.093C771.23,195.898 758.937,208.793 742.438,208.793Z" style="fill:#75091e;fill-rule:nonzero;"/><path d="M852.807,129.274C824.224,129.274 802.768,150.74 802.768,179.118C802.768,207.498 824.4,228.964 852.807,228.964C881.22,228.964 902.852,207.498 902.852,179.118C902.852,150.74 881.396,129.274 852.807,129.274ZM852.807,208.793C836.307,208.793 823.838,195.923 823.838,179.093C823.838,162.262 836.307,149.393 852.807,149.393C869.312,149.393 881.599,162.288 881.599,179.093C881.599,195.898 869.312,208.793 852.807,208.793Z" style="fill:#75091e;fill-rule:nonzero;"/><path d="M961.721,198.879C976.55,181.142 985.172,158.382 985.172,135.026C985.172,106.646 972.142,90.023 952.174,90.023C931.083,90.023 917.322,108.123 917.322,141.37C917.322,164.13 923.023,184.12 933.085,199.06C927.77,203.358 921.738,207.087 915.503,209.883L923.354,226.688C931.617,223.529 939.292,219.05 946.27,213.819C956.359,222.027 968.828,226.688 982.765,226.688L989.182,226.688L989.182,206.517L984.049,206.517C975.604,206.517 968.111,203.72 961.694,198.879L961.721,198.879ZM938.447,139.894C938.447,119.723 943.965,110.194 951.66,110.194C959.361,110.194 964.108,119.153 964.108,135.026C964.108,152.4 958.232,169.205 948.353,183.032C941.936,171.431 938.474,156.31 938.474,139.894L938.447,139.894Z" style="fill:#75091e;fill-rule:nonzero;"/><path d="M1069.35,180.949C1069.35,194.983 1060,204.123 1046.07,204.123C1032.85,204.123 1024.26,195.165 1024.26,181.363L1024.26,131.519L1003.73,131.519L1003.73,187.5C1003.73,209.717 1018.02,224.294 1039.47,224.294C1051.92,224.294 1062.18,219.426 1069.35,210.286L1069.35,222.611C1069.35,236.412 1059.64,245.553 1046.81,245.553C1037.29,245.553 1028.69,240.504 1025.56,232.684L1004.5,232.684C1009.27,252.286 1025.38,264.429 1046.46,264.429C1071.75,264.429 1089.9,247.443 1089.9,221.68L1089.9,131.493L1069.37,131.493L1069.37,180.949L1069.35,180.949Z" style="fill:#75091e;fill-rule:nonzero;"/><path d="M1152.39,97.868L1102.55,226.713L1126,226.713L1136.27,199.266L1193.83,199.266L1204.1,226.713L1228.12,226.713L1178.25,97.868L1152.39,97.868ZM1143.97,178.733L1165.04,122.156L1186.1,178.733L1143.97,178.733Z" style="fill:#75091e;fill-rule:nonzero;"/><rect x="1240.9" y="97.736" width="21.861" height="129.105" style="fill:#75091e;fill-rule:nonzero;"/><g><clipPath id="_clip2"><rect x="11.821" y="18.547" width="385.432" height="284.002"/></clipPath><g clip-path="url(#_clip2)"><path d="M319.502,223.862C313.708,223.862 309.011,228.61 309.011,234.465C309.011,240.32 313.708,245.067 319.502,245.067C325.297,245.067 329.994,240.32 329.994,234.465C329.994,228.61 325.297,223.862 319.502,223.862Z" style="fill:#75091e;fill-rule:nonzero;"/><path d="M350.743,223.862C344.95,223.862 340.251,228.61 340.251,234.465C340.251,240.32 344.95,245.067 350.743,245.067C356.538,245.067 361.235,240.32 361.235,234.465C361.235,228.61 356.538,223.862 350.743,223.862Z" style="fill:#75091e;fill-rule:nonzero;"/><path d="M396.784,232.447L381.255,131.432C374.965,90.551 349.832,55.552 312.275,35.402C272.526,14.065 224.452,12.931 183.789,32.316L105.858,67.051C105.858,67.051 105.805,67.051 105.779,67.078L51.676,92.53C20.774,107.088 4.88,142.931 14.719,175.952L47.056,280.923C51.884,294.269 63.107,302.551 76.365,302.551C90.563,302.551 101.864,294.586 106.562,281.398L352.911,281.398C366.301,281.398 378.828,275.675 387.284,265.679C395.14,256.395 398.611,244.289 396.784,232.42L396.784,232.447ZM380.315,259.666C373.608,267.604 363.612,272.141 352.911,272.141L108.937,272.141L146.337,108.697C146.912,106.218 145.371,103.712 142.892,103.132C140.439,102.551 137.959,104.108 137.385,106.613L98.628,276.071C95.783,286.857 87.458,293.293 76.339,293.293C67.048,293.293 59.114,287.333 55.721,277.943L23.489,173.236C14.954,144.645 28.735,113.55 55.538,100.943L109.642,75.491L187.6,40.729C225.757,22.557 270.751,23.612 307.969,43.578C342.968,62.357 366.379,94.877 372.199,132.856L387.728,233.871C389.163,243.181 386.527,252.36 380.315,259.692L380.315,259.666Z" style="fill:#75091e;fill-rule:nonzero;"/><path d="M220.822,114.425L220.9,114.557C222.361,114.082 223.928,113.765 225.546,113.765C227.425,113.765 229.226,114.135 230.869,114.768C232.488,108.781 234.706,96.886 232.07,83.645C231.888,82.775 231.183,82.116 230.322,82.01C220.43,80.902 210.225,83.091 201.639,88.182C201.038,88.524 200.699,89.131 200.673,89.817C200.621,90.556 200.934,91.268 201.534,91.69C209.442,97.677 215.941,105.299 220.822,114.372L220.822,114.425Z" style="fill:#75091e;fill-rule:nonzero;"/><path d="M211.008,125.744C211.713,122.29 213.593,119.256 216.228,117.12C211.922,112.742 202.892,104.803 190.285,100.53C189.45,100.267 188.511,100.53 187.989,101.242C182.091,109.365 178.881,119.441 178.933,129.516C178.933,130.202 179.272,130.808 179.846,131.204C180.446,131.626 181.203,131.652 181.882,131.388C190.991,127.406 200.777,125.533 210.956,125.797L211.035,125.797L211.008,125.744Z" style="fill:#75091e;fill-rule:nonzero;"/><path d="M183.762,145.629C183.109,146.236 182.901,147.185 183.239,148.003C187.259,157.234 194.201,165.093 202.84,170.105C203.44,170.448 204.119,170.474 204.72,170.157C205.372,169.841 205.816,169.182 205.894,168.47C207.068,158.5 210.331,148.979 215.655,140.143L215.733,140.064C213.254,137.796 211.505,134.684 210.957,131.203C205.058,132.785 193.758,136.768 183.788,145.682L183.762,145.629Z" style="fill:#75091e;fill-rule:nonzero;"/><path d="M249.557,165.876C241.649,159.889 235.151,152.267 230.27,143.193L230.192,143.062C228.731,143.536 227.164,143.826 225.546,143.826C223.667,143.826 221.867,143.457 220.222,142.824C218.604,148.811 216.36,160.706 219.022,173.946C219.204,174.816 219.909,175.476 220.77,175.582C230.662,176.69 240.867,174.5 249.453,169.41C250.054,169.067 250.393,168.46 250.419,167.775C250.471,167.036 250.158,166.324 249.557,165.902L249.557,165.876Z" style="fill:#75091e;fill-rule:nonzero;"/><path d="M269.21,126.252C260.101,130.235 250.314,132.081 240.135,131.844L240.057,131.844C239.352,135.299 237.473,138.332 234.837,140.468C239.143,144.846 248.174,152.785 260.78,157.058C261.615,157.321 262.555,157.058 263.077,156.346C268.974,148.222 272.185,138.147 272.133,128.072C272.133,127.386 271.793,126.78 271.219,126.384C270.619,125.988 269.862,125.909 269.183,126.199L269.21,126.252Z" style="fill:#75091e;fill-rule:nonzero;"/><path d="M267.307,111.963C267.959,111.356 268.168,110.407 267.829,109.589C263.81,100.358 256.867,92.498 248.229,87.487C247.628,87.144 246.95,87.144 246.35,87.434C245.697,87.751 245.253,88.41 245.175,89.122C244,99.092 240.738,108.614 235.414,117.449L235.336,117.528C237.815,119.796 239.564,122.908 240.112,126.39C246.01,124.807 257.311,120.825 267.281,111.91L267.307,111.963Z" style="fill:#75091e;fill-rule:nonzero;"/><path d="M225.521,118.339C219.831,118.339 215.211,123.033 215.211,128.783C215.211,134.533 219.831,139.228 225.521,139.228C231.21,139.228 235.83,134.533 235.83,128.783C235.83,123.033 231.21,118.339 225.521,118.339Z" style="fill:#75091e;fill-rule:nonzero;"/></g></g></g><path d="M552.535,312.021L558.442,312.021L558.442,283.329L568.172,283.329L568.172,277.769L542.756,277.769L542.756,283.329L552.535,283.329L552.535,312.021Z" style="fill:#750a1e;fill-rule:nonzero;"/><path d="M572.888,312.021L578.448,312.021L578.448,298.023C578.448,294.101 581.128,291.47 585.149,291.47C588.971,291.47 591.454,294.051 591.454,297.923L591.454,312.021L597.013,312.021L597.013,296.087C597.013,290.08 592.992,286.109 586.986,286.109C583.412,286.109 580.483,287.499 578.448,290.08L578.448,276.28L572.888,276.28L572.888,312.021Z" style="fill:#750a1e;fill-rule:nonzero;"/><path d="M615.579,312.617C621.585,312.617 626.549,309.291 628.585,304.377L622.429,304.377C621.139,306.313 618.607,307.603 615.678,307.603C611.707,307.603 608.728,305.171 607.885,301.497L628.833,301.497C628.932,300.852 628.982,300.108 628.982,299.413C628.982,291.818 623.174,286.109 615.43,286.109C607.736,286.109 601.928,291.818 601.928,299.363C601.928,306.908 607.736,312.617 615.579,312.617ZM615.43,291.123C619.203,291.123 622.181,293.456 623.025,296.931L607.934,296.931C608.828,293.406 611.757,291.123 615.43,291.123Z" style="fill:#750a1e;fill-rule:nonzero;"/><path d="M662.241,312.617C672.368,312.617 679.814,305.121 679.814,295.193L679.814,293.207L663.433,293.207L663.433,298.519L673.51,298.519C672.368,303.483 667.9,306.908 662.241,306.908C655.49,306.908 650.327,301.746 650.327,294.895C650.327,288.045 655.49,282.882 662.241,282.882C666.659,282.882 670.333,285.017 672.269,288.293L678.871,288.293C676.786,281.79 670.184,277.174 662.241,277.174C652.015,277.174 644.222,284.818 644.222,294.895C644.222,304.972 652.015,312.617 662.241,312.617Z" style="fill:#750a1e;fill-rule:nonzero;"/><path d="M685.473,312.021L691.38,312.021L691.38,300.058L700.713,300.058C707.265,300.058 712.18,295.292 712.18,288.938C712.18,282.535 707.265,277.769 700.713,277.769L685.473,277.769L685.473,312.021ZM700.613,283.329C703.741,283.329 706.124,285.712 706.124,288.938C706.124,292.115 703.741,294.498 700.613,294.498L691.38,294.498L691.38,283.329L700.613,283.329Z" style="fill:#750a1e;fill-rule:nonzero;"/><path d="M730.497,312.617C738.539,312.617 744.595,306.71 744.595,298.817L744.595,277.769L738.688,277.769L738.688,298.718C738.688,303.384 735.213,306.908 730.497,306.908C725.831,306.908 722.306,303.384 722.306,298.718L722.306,277.769L716.449,277.769L716.449,298.817C716.449,306.71 722.505,312.617 730.497,312.617Z" style="fill:#750a1e;fill-rule:nonzero;"/><path d="M763.061,312.021L768.969,312.021L768.969,297.576L785.747,297.576L785.747,312.021L791.605,312.021L791.605,277.769L785.747,277.769L785.747,292.016L768.969,292.016L768.969,277.769L763.061,277.769L763.061,312.021Z" style="fill:#750a1e;fill-rule:nonzero;"/><path d="M802.327,321.453L808.334,321.453L823.077,286.705L816.872,286.705L809.525,305.171L802.129,286.705L795.775,286.705L806.447,311.823L802.327,321.453Z" style="fill:#750a1e;fill-rule:nonzero;"/><path d="M826.85,321.453L832.409,321.453L832.409,308.398C834.544,311.029 837.622,312.617 841.345,312.617C848.443,312.617 853.805,306.908 853.805,299.363C853.805,291.818 848.443,286.109 841.345,286.109C837.622,286.109 834.544,287.697 832.409,290.328L832.409,286.705L826.85,286.705L826.85,321.453ZM840.253,307.256C835.785,307.256 832.409,303.831 832.409,299.363C832.409,294.895 835.785,291.47 840.253,291.47C844.72,291.47 848.046,294.895 848.046,299.363C848.046,303.831 844.72,307.256 840.253,307.256Z" style="fill:#750a1e;fill-rule:nonzero;"/><path d="M871.03,312.617C877.036,312.617 882.001,309.291 884.036,304.377L877.88,304.377C876.59,306.313 874.058,307.603 871.129,307.603C867.158,307.603 864.18,305.171 863.336,301.497L884.284,301.497C884.383,300.852 884.433,300.108 884.433,299.413C884.433,291.818 878.625,286.109 870.881,286.109C863.187,286.109 857.379,291.818 857.379,299.363C857.379,306.908 863.187,312.617 871.03,312.617ZM870.881,291.123C874.654,291.123 877.632,293.456 878.476,296.931L863.385,296.931C864.279,293.406 867.208,291.123 870.881,291.123Z" style="fill:#750a1e;fill-rule:nonzero;"/><path d="M889.298,312.021L894.857,312.021L894.857,299.71C894.857,295.044 897.985,292.016 903.346,292.016L904.24,292.016L904.24,286.307L903.346,286.307C899.772,286.307 896.843,288.045 894.857,290.924L894.857,286.705L889.298,286.705L889.298,312.021Z" style="fill:#750a1e;fill-rule:nonzero;"/><path d="M917.394,312.021L923.202,312.021L933.925,286.705L927.72,286.705L920.373,305.171L912.976,286.705L906.622,286.705L917.394,312.021Z" style="fill:#750a1e;fill-rule:nonzero;"/><path d="M940.577,282.634C942.612,282.634 944.151,281.095 944.151,279.11C944.151,277.074 942.612,275.585 940.577,275.585C938.591,275.585 937.052,277.074 937.052,279.11C937.052,281.095 938.591,282.634 940.577,282.634ZM937.797,312.021L943.356,312.021L943.356,286.705L937.797,286.705L937.797,312.021Z" style="fill:#750a1e;fill-rule:nonzero;"/><path d="M958.596,312.617C964.503,312.617 968.425,309.39 968.425,304.476C968.425,295.441 954.476,297.874 954.476,293.456C954.476,291.917 956.015,290.874 958.348,290.874C960.731,290.874 962.369,292.066 962.369,293.803L968.028,293.803C968.028,289.236 964.156,286.109 958.398,286.109C952.788,286.109 948.867,289.137 948.867,294.051C948.867,303.036 962.766,300.505 962.766,305.072C962.766,306.66 961.128,307.802 958.646,307.802C955.965,307.802 954.128,306.511 954.128,304.575L948.469,304.575C948.469,309.341 952.49,312.617 958.596,312.617Z" style="fill:#750a1e;fill-rule:nonzero;"/><path d="M985.402,312.617C993.096,312.617 998.954,306.908 998.954,299.363C998.954,291.818 993.096,286.109 985.402,286.109C977.658,286.109 971.85,291.818 971.85,299.363C971.85,306.908 977.658,312.617 985.402,312.617ZM985.402,307.256C980.934,307.256 977.559,303.831 977.559,299.363C977.559,294.895 980.934,291.47 985.402,291.47C989.87,291.47 993.196,294.895 993.196,299.363C993.196,303.831 989.87,307.256 985.402,307.256Z" style="fill:#750a1e;fill-rule:nonzero;"/><path d="M1003.97,312.021L1009.53,312.021L1009.53,299.71C1009.53,295.044 1012.65,292.016 1018.02,292.016L1018.91,292.016L1018.91,286.307L1018.02,286.307C1014.44,286.307 1011.51,288.045 1009.53,290.924L1009.53,286.705L1003.97,286.705L1003.97,312.021Z" style="fill:#750a1e;fill-rule:nonzero;"/><path d="M1051.38,312.617C1059.96,312.617 1066.81,307.206 1068.5,299.611L1062.25,299.611C1060.71,303.98 1056.49,306.908 1051.38,306.908C1044.62,306.908 1039.46,301.746 1039.46,294.895C1039.46,288.045 1044.62,282.882 1051.38,282.882C1056.49,282.882 1060.71,285.811 1062.25,290.179L1068.5,290.179C1066.81,282.584 1059.96,277.174 1051.38,277.174C1041.15,277.174 1033.36,284.818 1033.36,294.895C1033.36,304.972 1041.15,312.617 1051.38,312.617Z" style="fill:#750a1e;fill-rule:nonzero;"/><path d="M1085.73,312.617C1093.42,312.617 1099.28,306.908 1099.28,299.363C1099.28,291.818 1093.42,286.109 1085.73,286.109C1077.98,286.109 1072.17,291.818 1072.17,299.363C1072.17,306.908 1077.98,312.617 1085.73,312.617ZM1085.73,307.256C1081.26,307.256 1077.88,303.831 1077.88,299.363C1077.88,294.895 1081.26,291.47 1085.73,291.47C1090.19,291.47 1093.52,294.895 1093.52,299.363C1093.52,303.831 1090.19,307.256 1085.73,307.256Z" style="fill:#750a1e;fill-rule:nonzero;"/><path d="M1104.29,312.021L1109.85,312.021L1109.85,297.328C1109.85,293.803 1112.28,291.47 1115.86,291.47C1119.28,291.47 1121.47,293.754 1121.47,297.228L1121.47,312.021L1127.03,312.021L1127.03,297.328C1127.03,293.803 1129.46,291.47 1133.03,291.47C1136.46,291.47 1138.64,293.754 1138.64,297.228L1138.64,312.021L1144.2,312.021L1144.2,295.59C1144.2,289.882 1140.48,286.109 1134.87,286.109C1130.95,286.109 1127.87,287.747 1125.93,290.725C1124.45,287.846 1121.52,286.109 1117.69,286.109C1114.42,286.109 1111.74,287.35 1109.85,289.633L1109.85,286.705L1104.29,286.705L1104.29,312.021Z" style="fill:#750a1e;fill-rule:nonzero;"/><path d="M1150.41,321.453L1155.97,321.453L1155.97,308.398C1158.1,311.029 1161.18,312.617 1164.9,312.617C1172,312.617 1177.36,306.908 1177.36,299.363C1177.36,291.818 1172,286.109 1164.9,286.109C1161.18,286.109 1158.1,287.697 1155.97,290.328L1155.97,286.705L1150.41,286.705L1150.41,321.453ZM1163.81,307.256C1159.34,307.256 1155.97,303.831 1155.97,299.363C1155.97,294.895 1159.34,291.47 1163.81,291.47C1168.28,291.47 1171.6,294.895 1171.6,299.363C1171.6,303.831 1168.28,307.256 1163.81,307.256Z" style="fill:#750a1e;fill-rule:nonzero;"/><path d="M1193.5,312.617C1197.22,312.617 1200.3,311.029 1202.38,308.398L1202.38,312.021L1207.94,312.021L1207.94,286.705L1202.38,286.705L1202.38,290.328C1200.3,287.697 1197.22,286.109 1193.5,286.109C1186.35,286.109 1181.04,291.818 1181.04,299.363C1181.04,306.908 1186.35,312.617 1193.5,312.617ZM1194.59,307.256C1190.07,307.256 1186.75,303.831 1186.75,299.363C1186.75,294.895 1190.07,291.47 1194.59,291.47C1199.06,291.47 1202.38,294.895 1202.38,299.363C1202.38,303.831 1199.06,307.256 1194.59,307.256Z" style="fill:#750a1e;fill-rule:nonzero;"/><path d="M1214.54,312.021L1220.1,312.021L1220.1,298.023C1220.1,294.101 1222.78,291.47 1226.81,291.47C1230.63,291.47 1233.11,294.051 1233.11,297.923L1233.11,312.021L1238.67,312.021L1238.67,296.087C1238.67,290.08 1234.65,286.109 1228.64,286.109C1225.07,286.109 1222.14,287.449 1220.1,289.931L1220.1,286.705L1214.54,286.705L1214.54,312.021Z" style="fill:#750a1e;fill-rule:nonzero;"/><path d="M1247.45,321.453L1253.46,321.453L1268.2,286.705L1262,286.705L1254.65,305.171L1247.26,286.705L1240.9,286.705L1251.58,311.823L1247.45,321.453Z" style="fill:#750a1e;fill-rule:nonzero;"/></g></svg>